<mxfile host="app.diagrams.net" modified="2021-08-13T15:21:36.349Z" agent="5.0 (Windows NT 10.0; Win64; x64) AppleWebKit/537.36 (KHTML, like Gecko) Chrome/92.0.4515.131 Safari/537.36" etag="KMKF2ch5QINolXzbyvTm" version="14.9.2" type="github">
  <diagram id="by576vhlQv4gMGAHMiux" name="Page-1">
    <mxGraphModel dx="782" dy="468" grid="1" gridSize="10" guides="1" tooltips="1" connect="1" arrows="1" fold="1" page="1" pageScale="1" pageWidth="1200" pageHeight="1600" math="0" shadow="0">
      <root>
        <mxCell id="0" />
        <mxCell id="1" parent="0" />
        <mxCell id="Ki81aXrS8S2Icf1JoyaI-3" value="" style="edgeStyle=orthogonalEdgeStyle;rounded=0;orthogonalLoop=1;jettySize=auto;html=1;" edge="1" parent="1" source="Ki81aXrS8S2Icf1JoyaI-1" target="Ki81aXrS8S2Icf1JoyaI-2">
          <mxGeometry relative="1" as="geometry" />
        </mxCell>
        <mxCell id="Ki81aXrS8S2Icf1JoyaI-1" value="Start" style="shape=parallelogram;perimeter=parallelogramPerimeter;whiteSpace=wrap;html=1;fixedSize=1;fillColor=#e1d5e7;strokeColor=#9673a6;" vertex="1" parent="1">
          <mxGeometry x="60" y="40" width="90" height="40" as="geometry" />
        </mxCell>
        <mxCell id="Ki81aXrS8S2Icf1JoyaI-5" value="" style="edgeStyle=orthogonalEdgeStyle;rounded=0;orthogonalLoop=1;jettySize=auto;html=1;" edge="1" parent="1" source="Ki81aXrS8S2Icf1JoyaI-2" target="Ki81aXrS8S2Icf1JoyaI-4">
          <mxGeometry relative="1" as="geometry" />
        </mxCell>
        <mxCell id="Ki81aXrS8S2Icf1JoyaI-2" value="Получаем данные договора" style="rounded=1;whiteSpace=wrap;html=1;fillColor=#f8cecc;strokeColor=#b85450;" vertex="1" parent="1">
          <mxGeometry x="180" y="40" width="90" height="40" as="geometry" />
        </mxCell>
        <mxCell id="Ki81aXrS8S2Icf1JoyaI-7" value="" style="edgeStyle=orthogonalEdgeStyle;rounded=0;orthogonalLoop=1;jettySize=auto;html=1;" edge="1" parent="1" source="Ki81aXrS8S2Icf1JoyaI-4" target="Ki81aXrS8S2Icf1JoyaI-6">
          <mxGeometry relative="1" as="geometry" />
        </mxCell>
        <mxCell id="Ki81aXrS8S2Icf1JoyaI-4" value="Апдейт при помощи листа интервалов" style="rounded=0;whiteSpace=wrap;html=1;fillColor=#d5e8d4;strokeColor=#82b366;" vertex="1" parent="1">
          <mxGeometry x="310" y="30" width="80" height="60" as="geometry" />
        </mxCell>
        <mxCell id="Ki81aXrS8S2Icf1JoyaI-6" value="" style="rhombus;whiteSpace=wrap;html=1;fillColor=#fff2cc;strokeColor=#d6b656;" vertex="1" parent="1">
          <mxGeometry x="430" y="40" width="70" height="40" as="geometry" />
        </mxCell>
      </root>
    </mxGraphModel>
  </diagram>
</mxfile>
